<mxfile host="65bd71144e">
    <diagram id="t1TbIOM4Ixk4sZ2sk0LT" name="第 1 页">
        <mxGraphModel dx="1029" dy="821" grid="1" gridSize="10" guides="1" tooltips="1" connect="1" arrows="1" fold="1" page="1" pageScale="1" pageWidth="1169" pageHeight="827" math="0" shadow="0">
            <root>
                <mxCell id="0"/>
                <mxCell id="1" parent="0"/>
                <mxCell id="3" value="" style="shape=process;whiteSpace=wrap;html=1;backgroundOutline=1;" vertex="1" parent="1">
                    <mxGeometry x="205" y="340" width="510" height="200" as="geometry"/>
                </mxCell>
                <mxCell id="5" value="&lt;h1&gt;首&lt;/h1&gt;" style="text;html=1;resizable=0;autosize=1;align=center;verticalAlign=middle;points=[];fillColor=#1ba1e2;strokeColor=#006EAF;rounded=0;fontColor=#ffffff;" vertex="1" parent="1">
                    <mxGeometry x="200" y="545" width="40" height="50" as="geometry"/>
                </mxCell>
                <mxCell id="6" value="&lt;h1&gt;尾&lt;/h1&gt;" style="text;html=1;resizable=0;autosize=1;align=center;verticalAlign=middle;points=[];fillColor=#1ba1e2;strokeColor=#006EAF;rounded=0;fontColor=#ffffff;" vertex="1" parent="1">
                    <mxGeometry x="675" y="545" width="40" height="50" as="geometry"/>
                </mxCell>
                <mxCell id="9" value="" style="rounded=0;whiteSpace=wrap;html=1;strokeColor=#001DBC;fillColor=#0050ef;fontColor=#ffffff;" vertex="1" parent="1">
                    <mxGeometry x="545" y="369" width="60" height="150" as="geometry"/>
                </mxCell>
                <mxCell id="7" value="element" style="text;html=1;resizable=0;autosize=1;align=center;verticalAlign=middle;points=[];fillColor=#0050ef;strokeColor=#transpant;rounded=0;fontColor=#ffffff;" vertex="1" parent="1">
                    <mxGeometry x="545" y="434" width="60" height="20" as="geometry"/>
                </mxCell>
                <mxCell id="10" value="" style="rounded=0;whiteSpace=wrap;html=1;strokeColor=#001DBC;fillColor=#0050ef;fontColor=#ffffff;" vertex="1" parent="1">
                    <mxGeometry x="445" y="369" width="60" height="150" as="geometry"/>
                </mxCell>
                <mxCell id="11" value="element" style="text;html=1;resizable=0;autosize=1;align=center;verticalAlign=middle;points=[];fillColor=#0050ef;strokeColor=#transpant;rounded=0;fontColor=#ffffff;" vertex="1" parent="1">
                    <mxGeometry x="445" y="434" width="60" height="20" as="geometry"/>
                </mxCell>
                <mxCell id="12" value="" style="rounded=0;whiteSpace=wrap;html=1;strokeColor=#001DBC;fillColor=#0050ef;fontColor=#ffffff;" vertex="1" parent="1">
                    <mxGeometry x="330" y="369" width="60" height="150" as="geometry"/>
                </mxCell>
                <mxCell id="13" value="element" style="text;html=1;resizable=0;autosize=1;align=center;verticalAlign=middle;points=[];fillColor=#0050ef;strokeColor=#transpant;rounded=0;fontColor=#ffffff;" vertex="1" parent="1">
                    <mxGeometry x="330" y="434" width="60" height="20" as="geometry"/>
                </mxCell>
                <mxCell id="16" value="" style="rounded=0;whiteSpace=wrap;html=1;strokeColor=#001DBC;fillColor=#0050ef;fontColor=#ffffff;" vertex="1" parent="1">
                    <mxGeometry x="60" y="365" width="60" height="150" as="geometry"/>
                </mxCell>
                <mxCell id="17" value="element" style="text;html=1;resizable=0;autosize=1;align=center;verticalAlign=middle;points=[];fillColor=#0050ef;strokeColor=#transpant;rounded=0;fontColor=#ffffff;" vertex="1" parent="1">
                    <mxGeometry x="60" y="430" width="60" height="20" as="geometry"/>
                </mxCell>
                <mxCell id="20" value="" style="rounded=0;whiteSpace=wrap;html=1;strokeColor=#001DBC;fillColor=#0050ef;fontColor=#ffffff;" vertex="1" parent="1">
                    <mxGeometry x="760" y="369" width="60" height="150" as="geometry"/>
                </mxCell>
                <mxCell id="21" value="element" style="text;html=1;resizable=0;autosize=1;align=center;verticalAlign=middle;points=[];fillColor=#0050ef;strokeColor=#transpant;rounded=0;fontColor=#ffffff;" vertex="1" parent="1">
                    <mxGeometry x="760" y="430" width="60" height="20" as="geometry"/>
                </mxCell>
                <mxCell id="23" value="" style="shape=flexArrow;endArrow=classic;html=1;entryX=0.99;entryY=0.507;entryDx=0;entryDy=0;entryPerimeter=0;fillColor=#d80073;strokeColor=#A50040;" edge="1" parent="1" target="7">
                    <mxGeometry width="50" height="50" relative="1" as="geometry">
                        <mxPoint x="760" y="444" as="sourcePoint"/>
                        <mxPoint x="420" y="570" as="targetPoint"/>
                    </mxGeometry>
                </mxCell>
                <mxCell id="24" value="" style="shape=flexArrow;endArrow=classic;html=1;exitX=-0.038;exitY=0.45;exitDx=0;exitDy=0;exitPerimeter=0;fillColor=#d80073;strokeColor=#A50040;" edge="1" parent="1" source="7">
                    <mxGeometry width="50" height="50" relative="1" as="geometry">
                        <mxPoint x="370" y="620" as="sourcePoint"/>
                        <mxPoint x="500" y="443" as="targetPoint"/>
                    </mxGeometry>
                </mxCell>
                <mxCell id="25" value="" style="shape=flexArrow;endArrow=classic;html=1;exitX=-0.067;exitY=0.45;exitDx=0;exitDy=0;exitPerimeter=0;entryX=1;entryY=0.5;entryDx=0;entryDy=0;fillColor=#d80073;strokeColor=#A50040;" edge="1" parent="1" source="11" target="12">
                    <mxGeometry width="50" height="50" relative="1" as="geometry">
                        <mxPoint x="370" y="620" as="sourcePoint"/>
                        <mxPoint x="420" y="570" as="targetPoint"/>
                    </mxGeometry>
                </mxCell>
                <mxCell id="26" value="" style="shape=flexArrow;endArrow=classic;html=1;fillColor=#d80073;strokeColor=#A50040;exitX=-0.036;exitY=0.45;exitDx=0;exitDy=0;exitPerimeter=0;entryX=1.017;entryY=0.707;entryDx=0;entryDy=0;entryPerimeter=0;" edge="1" parent="1" source="13" target="17">
                    <mxGeometry width="50" height="50" relative="1" as="geometry">
                        <mxPoint x="330" y="440" as="sourcePoint"/>
                        <mxPoint x="120" y="440" as="targetPoint"/>
                    </mxGeometry>
                </mxCell>
            </root>
        </mxGraphModel>
    </diagram>
</mxfile>